<?xml version="1.0" encoding="utf-8"?>
<!-- Generator: Adobe Illustrator 26.0.3, SVG Export Plug-In . SVG Version: 6.00 Build 0)  -->
<svg version="1.1" id="Warstwa_1" xmlns="http://www.w3.org/2000/svg" xmlns:xlink="http://www.w3.org/1999/xlink" x="0px" y="0px"
	 viewBox="0 0 1920 1020.9" style="enable-background:new 0 0 1920 1020.9;" xml:space="preserve">
<style type="text/css">
	.st0{fill-rule:evenodd;clip-rule:evenodd;}
	.st1{fill-rule:evenodd;clip-rule:evenodd;fill:url(#SVGID_1_);}
</style>
<g>
	<path class="st0" d="M1314.9,225.7c8.2-55,55.4-95.7,111-95.7h226l-11,80.5h-215c-15.7,0-29.1,11.5-31.4,27l-46,308.2
		c-1.7,11.1,6.9,21,18.1,21h160.1c10.3,0,19-7.5,20.5-17.7l17.8-121.7c0.8-5.1-3.2-9.8-8.4-9.8h-130.2l12.2-80.5h127.8
		c49.1,0,86.8,43.6,79.7,92.2l-19.2,131.5c-7.3,49.7-49.9,86.6-100.2,86.6h-160.1c-60.4,0-106.7-53.7-97.7-113.4L1314.9,225.7
		L1314.9,225.7z"/>
	
		<linearGradient id="SVGID_1_" gradientUnits="userSpaceOnUse" x1="461.6619" y1="1023.2509" x2="329.8719" y2="996.4609" gradientTransform="matrix(1 0 0 1 0 -637.85)">
		<stop  offset="6.000000e-02" style="stop-color:#000000"/>
		<stop  offset="1" style="stop-color:#000000;stop-opacity:0"/>
	</linearGradient>
	<path class="st1" d="M555.2,222.4c0.9-6.6,6.6-11.6,13.3-11.6h113.8c36.8,0,64.9,33,59,69.3L703,517.1
		c-4.8,29.6-30.3,51.3-60.2,51.3h-90.2l-12.2,80.5h102.4c69.5,0,128.7-50.4,139.7-119L820.7,293c13.8-85.3-52.1-162.7-138.5-162.7
		H522.7c-20.7,0-38.2,15.3-41.1,35.8l-47,340.1c-4.9,35.6-35.4,62.1-71.3,62.1h-82.7l-12.5,80.5h95.2c76.2,0,140.6-56.2,151.1-131.6
		L555.2,222.4L555.2,222.4z"/>
	<path class="st0" d="M892.8,225.7c8.2-55,55.4-95.7,111-95.7h226l-11,80.5h-215c-15.7,0-29,11.5-31.4,27l-46,308.2
		c-1.7,11.1,6.9,21,18.1,21h160.1c10.3,0,19-7.5,20.5-17.7l17.8-121.7c0.8-5.1-3.2-9.8-8.4-9.8h-130.2l12.2-80.5h127.8
		c49.1,0,86.8,43.6,79.7,92.2l-19.2,131.5c-7.3,49.7-49.9,86.6-100.2,86.6h-160c-60.4,0-106.7-53.7-97.7-113.4L892.8,225.7
		L892.8,225.7z"/>
	<path d="M323.9,750.2h-20.6V827h-13.7v-76.9H269v-12.9h54.9L323.9,750.2L323.9,750.2z M329.5,827v-98.1h13.2v46.3
		c5.6-5.8,11.9-6.3,15.2-6.3c10.4,0,15.1,5.4,16.7,7.7c3.5,5.1,3.6,11.7,3.6,15.8V827H365v-33.5c0-3.4,0-7-2.6-9.8
		c-1.5-1.6-4-3-7.4-3c-4.4,0-7.9,2.2-9.7,4.7c-1.9,2.7-2.7,7-2.7,14.3V827L329.5,827L329.5,827z M433.2,807.9l11,6.2
		c-2.4,4.3-5.9,8.1-9.6,10.4c-4.6,3-10.6,4.3-16.7,4.3c-7.5,0-13.7-1.9-19.1-7.3c-5.4-5.4-8.4-13.2-8.4-21.7s3.1-17.2,9-23.3
		c4.7-4.7,10.9-7.7,19-7.7c9,0,14.8,3.9,18.2,7.4c7.3,7.5,7.9,18,7.9,24v1.6H404c0.3,4,2,8.6,4.9,11.4c3.1,3.1,6.9,3.6,10.1,3.6
		c3.6,0,6.3-0.8,9-2.8C430.3,812.4,432,810.1,433.2,807.9L433.2,807.9z M405,791.1h26.2c-0.5-3.1-2-5.8-4-7.7
		c-1.8-1.6-4.6-3.2-8.9-3.2c-4.6,0-7.5,1.9-9.3,3.6C407.1,785.6,405.6,788.3,405,791.1L405,791.1z M503.9,760.1h-13.2
		c0.4-7.3,3.5-13.5,7.7-17.5c6.2-5.9,13.7-6.9,19.7-6.9c6.9,0,13.6,1.3,19.4,7.4c4.7,4.8,6.5,10.6,6.5,17.1c0,4.3-0.8,8.1-3.1,11.8
		c-2.4,3.9-5.5,6.2-8.1,7.5c4.6,1.8,7.4,4.8,8.9,7.1c2.6,3.8,3.8,8.8,3.8,13.9c0,8.9-3.4,15.8-7.7,20.1c-6.5,6.5-14.9,7.8-21.9,7.8
		s-14.3-1.3-20.1-7.5c-4-4.3-7-11.4-7.7-18.3h13.2c0.7,4,2.6,7.5,4.9,9.7c1.9,1.8,5.2,4,10.9,4c4.2,0,8.1-1.6,10.5-3.8
		c2.6-2.4,4.7-6.6,4.7-12.7c0-3-0.5-7.3-4-10.6c-3.9-3.8-8.8-4-11.6-4h-2.7v-11.6h1.9c5.8,0,9.4-1.9,11.4-3.9
		c2.2-2.2,3.5-5.5,3.5-9.6c0-4.7-2-7.5-3.5-9c-3.1-3-6.9-3.4-9.6-3.4c-3.2,0-7,0.5-10,3.6C504.6,754.7,503.9,759.6,503.9,760.1
		L503.9,760.1z M568.8,737.2h18.8c12.5,0,23.4,1.3,33.4,8.8c10.9,8.2,17.2,21.3,17.2,36.2s-6.2,27.9-18,36.2
		c-10.5,7.4-20.3,8.6-32.8,8.6h-18.6V737.2L568.8,737.2z M582.6,750.2v64h5.9c6.7,0,16-0.5,23.8-6.3c6.2-4.7,12.2-13.3,12.2-25.6
		s-5.7-21.1-12.1-25.8c-7.8-5.7-17.4-6.2-24-6.2H582.6z M686.9,737.2h19.8c5.5,0,13.2,0.5,19.7,4.8c7.5,5,11.2,13.6,11.2,21.8
		c0,5.2-1.3,13.3-8.8,19.7c-7.1,6.1-15.3,7-21.9,7h-6.2V827h-13.7V737.2L686.9,737.2z M700.6,749.9v28h6.2
		c11.8,0,17.5-5.8,17.5-14.1c0-5-2-13.9-17.6-13.9L700.6,749.9L700.6,749.9z M749.2,770.3h13.2V827h-13.2V770.3z M747.3,746.9
		c0-4.8,3.6-8.5,8.5-8.5s8.5,3.6,8.5,8.5s-3.6,8.5-8.5,8.5S747.3,751.8,747.3,746.9z M792.2,820.4v37.4H779v-87.5h13.2v6.2
		c4.8-5.8,11.2-7.7,16.8-7.7c14.9,0,27.6,11.4,27.6,29.5c0,19.1-14,30.4-27.5,30.4C806.1,828.8,798.1,827.7,792.2,820.4L792.2,820.4
		z M807.4,780.7c-8.3,0-16,5.9-16,18.3s7.7,17.9,16,17.9c9.6,0,15.8-8.2,15.8-18S817,780.7,807.4,780.7L807.4,780.7z M890.1,807.9
		l11,6.2c-2.4,4.3-5.9,8.1-9.6,10.4c-4.6,3-10.6,4.3-16.7,4.3c-7.5,0-13.7-1.9-19.1-7.3c-5.4-5.4-8.3-13.2-8.3-21.7s3.1-17.2,9-23.3
		c4.7-4.7,10.9-7.7,19-7.7c9,0,14.8,3.9,18.2,7.4c7.3,7.5,7.9,18,7.9,24v1.6h-40.7c0.3,4,2,8.6,4.8,11.4c3.1,3.1,6.9,3.6,10.1,3.6
		c3.6,0,6.3-0.8,9-2.8C887.1,812.4,888.9,810.1,890.1,807.9L890.1,807.9z M861.8,791.1h26.2c-0.5-3.1-2-5.8-4-7.7
		c-1.8-1.6-4.6-3.2-8.9-3.2c-4.6,0-7.5,1.9-9.3,3.6C864,785.6,862.5,788.3,861.8,791.1L861.8,791.1z M915.3,728.9h13.2V827h-13.2
		V728.9z M945.2,770.3h13.2V827h-13.2V770.3z M943.3,746.9c0-4.8,3.6-8.5,8.5-8.5s8.5,3.6,8.5,8.5s-3.6,8.5-8.5,8.5
		S943.3,751.8,943.3,746.9z M974.9,827v-56.7h13.2v5.2c5.7-6.3,12.1-6.7,15.3-6.7c10.5,0,14.9,5.2,16.7,7.7c2.2,3.1,3.5,7,3.5,15.8
		V827h-13.2v-31.5c0-14.4-5.4-14.8-10.4-14.8c-5.9,0-12,0.8-12,19.1V827L974.9,827L974.9,827z M1080.1,807.9l11,6.2
		c-2.4,4.3-5.9,8.1-9.6,10.4c-4.6,3-10.6,4.3-16.7,4.3c-7.5,0-13.7-1.9-19.1-7.3c-5.4-5.4-8.3-13.2-8.3-21.7s3.1-17.2,9-23.3
		c4.7-4.7,10.9-7.7,19-7.7c9,0,14.8,3.9,18.2,7.4c7.3,7.5,7.9,18,7.9,24v1.6h-40.7c0.3,4,2,8.6,4.8,11.4c3.1,3.1,6.9,3.6,10.1,3.6
		c3.6,0,6.3-0.8,9-2.8C1077.1,812.4,1078.9,810.1,1080.1,807.9L1080.1,807.9z M1051.8,791.1h26.2c-0.5-3.1-2-5.8-4-7.7
		c-1.8-1.6-4.6-3.2-8.9-3.2c-4.6,0-7.5,1.9-9.3,3.6C1054,785.6,1052.5,788.3,1051.8,791.1L1051.8,791.1z M1205.7,742.1v16.2
		c-10-9-19.2-10-24.4-10c-19.5,0-32.7,14.4-32.7,34.2s13.7,33.7,32.8,33.7c10.8,0,19.1-5.5,24.2-10.4V822c-9,5.4-18.4,6.7-24.6,6.7
		c-16.3,0-26.5-7.4-31.8-12.4c-10.5-9.8-14.4-21.3-14.4-33.9c0-16.6,6.9-28,14.4-35.1c9.3-8.8,20.1-11.7,32.4-11.7
		C1189.9,735.6,1197.8,737.1,1205.7,742.1L1205.7,742.1z M1247.6,768.9c17.1,0,30.3,12.4,30.3,29.9s-13.2,30-30.3,30
		s-30.3-12.7-30.3-30S1230.4,768.9,1247.6,768.9z M1247.6,816.9c10.4,0,16.8-7.1,16.8-18c0-12.9-8.5-18.2-16.8-18.2
		s-16.8,5.2-16.8,18.2C1230.7,809.8,1237.2,816.9,1247.6,816.9z M1291.6,827v-56.7h13.2v5.2c4.4-5.4,9.7-6.7,14-6.7
		c5.9,0,11.4,2.8,14.7,8.3c4.7-6.7,11.8-8.3,16.8-8.3c6.9,0,12.9,3.2,16.2,8.9c1.1,1.9,3,6.1,3,14.3v35h-13.2v-31.2
		c0-6.3-0.7-8.9-1.2-10.1c-0.8-2.2-2.8-5-7.5-5c-3.2,0-6.1,1.8-7.8,4.2c-2.3,3.2-2.6,8.1-2.6,12.9V827h-13.2v-31.2
		c0-6.3-0.7-8.9-1.2-10.1c-0.8-2.2-2.8-5-7.5-5c-3.2,0-6.1,1.8-7.8,4.2c-2.3,3.2-2.6,8.1-2.6,12.9V827L1291.6,827L1291.6,827z
		 M1399.3,820.4v37.4h-13.2v-87.5h13.2v6.2c4.8-5.8,11.2-7.7,16.8-7.7c14.9,0,27.6,11.4,27.6,29.5c0,19.1-14,30.4-27.5,30.4
		C1413.2,828.8,1405.3,827.7,1399.3,820.4L1399.3,820.4z M1414.5,780.7c-8.3,0-16,5.9-16,18.3s7.7,17.9,16,17.9
		c9.6,0,15.8-8.2,15.8-18S1424.1,780.7,1414.5,780.7L1414.5,780.7z M1499,777v-6.6h13.2V827H1499v-5.9c-5.8,6.7-12.9,7.7-17,7.7
		c-17.5,0-27.5-14.5-27.5-30.2c0-18.4,12.7-29.8,27.6-29.8C1486.3,768.9,1493.6,770,1499,777L1499,777z M1483.8,780.7
		c-9.6,0-15.8,8.1-15.8,18.2s6.2,18,15.8,18c8.3,0,16-6.1,16-17.9S1492.1,780.7,1483.8,780.7L1483.8,780.7z M1528.8,827v-56.7h13.2
		v5.2c5.7-6.3,12.1-6.7,15.3-6.7c10.5,0,14.9,5.2,16.7,7.7c2.2,3.1,3.5,7,3.5,15.8V827h-13.2v-31.5c0-14.4-5.4-14.8-10.4-14.8
		c-5.9,0-12,0.8-12,19.1V827L1528.8,827L1528.8,827z M1590.1,857.9l20.9-39.7l-24.2-47.8h15.9l16.2,33.1l16.4-33.1h14.8l-45.1,87.5
		L1590.1,857.9L1590.1,857.9z"/>
</g>
</svg>
