<?xml version="1.0" encoding="utf-8"?>
<!-- Generator: Adobe Illustrator 25.0.0, SVG Export Plug-In . SVG Version: 6.00 Build 0)  -->
<svg version="1.1" id="Layer_1" xmlns="http://www.w3.org/2000/svg" xmlns:xlink="http://www.w3.org/1999/xlink" x="0px" y="0px"
	 viewBox="0 0 160 34" style="enable-background:new 0 0 160 34;" xml:space="preserve">
<style type="text/css">
	.st0{fill-rule:evenodd;clip-rule:evenodd;fill:url(#SVGID_1_);}
	.st1{fill-rule:evenodd;clip-rule:evenodd;fill:url(#SVGID_2_);}
	.st2{fill-rule:evenodd;clip-rule:evenodd;fill:url(#SVGID_3_);}
	.st3{fill-rule:evenodd;clip-rule:evenodd;fill:url(#SVGID_4_);}
	.st4{fill-rule:evenodd;clip-rule:evenodd;fill:url(#SVGID_5_);}
	.st5{fill-rule:evenodd;clip-rule:evenodd;fill:url(#SVGID_6_);}
	.st6{fill:#212121;}
</style>
<g>
	<linearGradient id="SVGID_1_" gradientUnits="userSpaceOnUse" x1="162.4657" y1="27.0435" x2="141.4201" y2="11.2027">
		<stop  offset="0.2315" style="stop-color:#6CC2BF;stop-opacity:0.7"/>
		<stop  offset="0.8" style="stop-color:#4785C5"/>
	</linearGradient>
	<polygon class="st0" points="147.4,8.92 144.04,6.98 137.2,10.93 137.2,14.81 	"/>
	<linearGradient id="SVGID_2_" gradientUnits="userSpaceOnUse" x1="167.2173" y1="20.7321" x2="146.1711" y2="4.8908">
		<stop  offset="0.2315" style="stop-color:#6CC2BF;stop-opacity:0.7"/>
		<stop  offset="0.8" style="stop-color:#4785C5"/>
	</linearGradient>
	<polygon class="st1" points="154.89,12.5 154.89,8.61 148.04,4.66 144.68,6.61 	"/>
	<linearGradient id="SVGID_3_" gradientUnits="userSpaceOnUse" x1="165.9442" y1="22.4227" x2="144.8985" y2="6.5818">
		<stop  offset="0.2315" style="stop-color:#6CC2BF;stop-opacity:0.7"/>
		<stop  offset="0.8" style="stop-color:#4785C5"/>
	</linearGradient>
	<polygon class="st2" points="155.53,12.87 155.53,12.87 155.53,12.87 155.53,20.77 158.89,18.83 158.89,10.93 155.53,8.99 	"/>
	<linearGradient id="SVGID_4_" gradientUnits="userSpaceOnUse" x1="158.0256" y1="32.943" x2="136.9798" y2="17.1021">
		<stop  offset="0.2315" style="stop-color:#6CC2BF;stop-opacity:0.7"/>
		<stop  offset="0.8" style="stop-color:#4785C5"/>
	</linearGradient>
	<polygon class="st3" points="140.56,21.51 140.56,13.61 137.2,15.55 137.2,23.45 140.56,25.39 	"/>
	<linearGradient id="SVGID_5_" gradientUnits="userSpaceOnUse" x1="161.5038" y1="28.3221" x2="140.4583" y2="12.4813">
		<stop  offset="0.2315" style="stop-color:#6CC2BF;stop-opacity:0.7"/>
		<stop  offset="0.8" style="stop-color:#4785C5"/>
	</linearGradient>
	<polygon class="st4" points="148.69,25.46 152.05,27.4 158.89,23.45 158.89,19.57 	"/>
	<linearGradient id="SVGID_6_" gradientUnits="userSpaceOnUse" x1="156.7533" y1="34.6338" x2="135.7072" y2="18.7926">
		<stop  offset="0.2315" style="stop-color:#6CC2BF;stop-opacity:0.7"/>
		<stop  offset="0.8" style="stop-color:#4785C5"/>
	</linearGradient>
	<polygon class="st5" points="148.04,25.83 148.04,25.83 141.2,21.88 141.2,25.76 148.04,29.72 151.41,27.77 	"/>
</g>
<g>
	<path class="st6" d="M5.71,23.7L1,10.68h1.7l3.99,11.01h0.09l4.01-11.01h1.65L7.75,23.7H5.71z"/>
	<path class="st6" d="M17.7,23.7V10.68h1.63V23.7H17.7z"/>
	<path class="st6" d="M27.58,23.77c-0.85-0.05-1.6-0.11-2.26-0.19v-1.49c1.64,0.16,3.01,0.25,4.11,0.25c0.68,0,1.22-0.03,1.62-0.08
		c0.4-0.06,0.73-0.16,1.01-0.31c0.25-0.15,0.42-0.37,0.49-0.67c0.08-0.3,0.11-0.69,0.11-1.18c0-0.59-0.03-1.01-0.1-1.26
		c-0.06-0.25-0.21-0.43-0.44-0.54c-0.23-0.11-0.63-0.2-1.2-0.25l-3.22-0.36c-0.78-0.09-1.37-0.27-1.77-0.56
		c-0.4-0.28-0.66-0.66-0.8-1.12c-0.13-0.46-0.2-1.06-0.2-1.81c0-1.03,0.18-1.82,0.54-2.35c0.36-0.53,0.86-0.88,1.51-1.06
		c0.65-0.18,1.52-0.26,2.62-0.26c0.73,0,1.47,0.03,2.23,0.09c0.76,0.06,1.35,0.14,1.8,0.23v1.44c-0.48-0.08-1.07-0.14-1.78-0.18
		c-0.71-0.04-1.36-0.07-1.97-0.07c-0.71,0-1.27,0.03-1.7,0.09c-0.43,0.06-0.76,0.17-1,0.32c-0.27,0.15-0.44,0.35-0.51,0.61
		c-0.08,0.25-0.11,0.61-0.11,1.08c0,0.52,0.04,0.89,0.11,1.13c0.08,0.23,0.22,0.4,0.44,0.51c0.21,0.11,0.57,0.19,1.06,0.24
		l3.18,0.36c0.76,0.08,1.34,0.21,1.76,0.4c0.42,0.19,0.72,0.53,0.91,1.02c0.18,0.45,0.26,1.18,0.26,2.18c0,1.15-0.18,2-0.53,2.56
		c-0.35,0.56-0.83,0.92-1.42,1.08c-0.59,0.16-1.41,0.24-2.44,0.24C29.2,23.85,28.43,23.82,27.58,23.77z"/>
	<path class="st6" d="M41.34,23.34c-0.72-0.34-1.18-0.94-1.37-1.79s-0.29-2.3-0.29-4.36c0-2.06,0.1-3.51,0.29-4.36
		c0.2-0.85,0.65-1.45,1.37-1.79c0.72-0.34,1.94-0.51,3.67-0.51c1.71,0,2.93,0.17,3.66,0.51c0.72,0.34,1.19,0.94,1.38,1.79
		c0.2,0.85,0.29,2.3,0.29,4.36c0,2.06-0.1,3.51-0.29,4.36s-0.66,1.45-1.38,1.79c-0.72,0.34-1.95,0.51-3.66,0.51
		C43.28,23.85,42.06,23.68,41.34,23.34z M47.62,22.09c0.45-0.16,0.75-0.57,0.89-1.23c0.14-0.65,0.21-1.88,0.21-3.67
		s-0.07-3.01-0.21-3.67c-0.14-0.66-0.44-1.07-0.89-1.23c-0.45-0.16-1.32-0.25-2.61-0.25c-1.29,0-2.16,0.08-2.62,0.25
		c-0.46,0.16-0.76,0.57-0.9,1.23c-0.14,0.66-0.21,1.88-0.21,3.67s0.07,3.01,0.21,3.67c0.14,0.66,0.44,1.07,0.9,1.23
		c0.46,0.16,1.33,0.25,2.62,0.25C46.29,22.33,47.16,22.25,47.62,22.09z"/>
	<path class="st6" d="M67.93,23.7V13.46h-0.08l-4.46,7.21H62.2l-4.45-7.21h-0.08V23.7h-1.53V10.68h2.01l4.63,7.66h0.1l4.63-7.66
		h2.01V23.7H67.93z"/>
	<path class="st6" d="M75.63,23.7V10.68h8.47v1.51h-6.85v4.18h5.94v1.51h-5.94v4.29h6.85v1.51H75.63z"/>
	<path class="st6" d="M93.08,23.7V12.25h-4.12v-1.57h9.86v1.57h-4.1V23.7H93.08z"/>
	<path class="st6" d="M112.15,23.7l-2.02-5.11h-0.32h-4.09v5.11h-1.63V10.68h5.98c1.03,0,1.82,0.16,2.35,0.49
		c0.53,0.33,0.88,0.77,1.04,1.32c0.16,0.55,0.25,1.27,0.25,2.14c0,0.9-0.13,1.67-0.4,2.34c-0.27,0.66-0.81,1.11-1.63,1.35l2.21,5.37
		H112.15z M111.17,16.82c0.38-0.17,0.63-0.42,0.74-0.75c0.11-0.33,0.16-0.81,0.16-1.44c0-0.64-0.05-1.13-0.15-1.46
		c-0.1-0.33-0.33-0.57-0.69-0.74c-0.36-0.16-0.93-0.25-1.71-0.25h-3.8v4.88h3.67C110.19,17.08,110.79,16.99,111.17,16.82z"/>
	<path class="st6" d="M122.76,23.7v-4.92l-4.71-8.1h1.74l3.76,6.34h0.13l3.74-6.34h1.7l-4.75,8.1v4.92H122.76z"/>
</g>
</svg>
