<svg viewBox="0 0 24 24" xmlns="http://www.w3.org/2000/svg" fill="#005243"><g id="SVGRepo_bgCarrier" stroke-width="0"></g><g id="SVGRepo_tracerCarrier" stroke-linecap="round" stroke-linejoin="round"></g><g id="SVGRepo_iconCarrier"> <rect x="0" fill="none" width="24" height="24"></rect> <g> <path d="M3 19h18v2H3zm3-3c1.1 0 2-.9 2-2 0-.5-.2-1-.5-1.3L8.8 10H9c.5 0 1-.2 1.3-.5l2.7 1.4v.1c0 1.1.9 2 2 2s2-.9 2-2c0-.5-.2-.9-.5-1.3L17.8 7h.2c1.1 0 2-.9 2-2s-.9-2-2-2-2 .9-2 2c0 .5.2 1 .5 1.3L15.2 9H15c-.5 0-1 .2-1.3.5L11 8.2V8c0-1.1-.9-2-2-2s-2 .9-2 2c0 .5.2 1 .5 1.3L6.2 12H6c-1.1 0-2 .9-2 2s.9 2 2 2z"></path> </g> </g></svg>